<svg xmlns="http://www.w3.org/2000/svg" viewBox="0 0 141.7 141.7"><style>.a{fill:none;}.b{fill:#667880;font-family:'Gravity-Light';font-size:20px;}</style><style type="text/css">  
	.st0{fill:#667880;}
	.st1{display:none;}
	.st2{display:inline;fill:none;stroke:#000000;stroke-miterlimit:10;}
</style><path class="st0" d="M-15.6-258.7v3.8c-32.1 0-58.1 25.8-58.1 57.6l0 0h27.1v3.8h-27c0.9 13.9 6.9 27 16.9 36.9l0 0 -2.7 2.7C-71-165.4-77.6-181-77.6-197.3 -77.6-231.2-49.8-258.7-15.6-258.7L-15.6-258.7z"/><path class="st0" d="M-19.4-193.5c0-33.9 27.8-61.4 62-61.4l0 0v3.8c-32.1 0-58.1 25.8-58.1 57.6l0 0H-19.4z"/><path class="st0" d="M46.4-197.3c0 33.9-27.8 61.4-62 61.4l0 0v-3.8c32.1 0 58.1-25.8 58.1-57.6l0 0H46.4z"/><path class="st0" d="M-879.1-258.7v3.8c-32.1 0-58.1 25.8-58.1 57.6l0 0h27.1v3.8h-27c0.9 13.9 6.9 27 16.9 36.9l0 0 -2.7 2.7c-11.6-11.5-18.2-27.1-18.2-43.4C-941.1-231.2-913.3-258.7-879.1-258.7L-879.1-258.7z"/><path class="st0" d="M-882.9-193.5c0-33.9 27.8-61.4 62-61.4l0 0v3.8c-32.1 0-58.1 25.8-58.1 57.6l0 0H-882.9z"/><path class="st0" d="M-817.1-197.3c0 33.9-27.8 61.4-62 61.4l0 0v-3.8c30.6 0 56-23.5 58-53.7l0 0h-11.5v-3.8H-817.1z"/><path class="st0" d="M-444.2-23.4v3.8c-32.1 0-58.1 25.8-58.1 57.6l0 0h27.1v3.8h-27c0.9 13.9 6.9 27 16.9 36.9l0 0 -2.7 2.7c-11.6-11.5-18.2-27.1-18.2-43.4C-506.2 4.1-478.5-23.4-444.2-23.4L-444.2-23.4z"/><path class="st0" d="M-448.1 41.8c0-33.9 27.8-61.4 62-61.4l0 0v3.8c-32.1 0-58.1 25.8-58.1 57.6l0 0H-448.1z"/><path class="st0" d="M-382.2 38c0 33.9-27.8 61.4-62 61.4l0 0v-3.8c32.1 0 58.1-25.8 58.1-57.5l0 0H-382.2z"/><path class="st0" d="M-879.1-23.4v3.8c-32.1 0-58.1 25.8-58.1 57.6l0 0h27.1v3.8h-27c0.9 13.9 6.9 27 16.9 36.9l0 0 -2.7 2.7c-11.6-11.5-18.2-27.1-18.2-43.4C-941.1 4.1-913.3-23.4-879.1-23.4L-879.1-23.4z"/><path class="st0" d="M-882.9 41.8c0-33.9 27.8-61.4 62-61.4l0 0v3.8c-32.1 0-58.1 25.8-58.1 57.6l0 0H-882.9z"/><path class="st0" d="M-817.1 38c0 33.9-27.8 61.4-62 61.4l0 0v-3.8c30.6 0 56-23.5 58-53.7l0 0h-11.5V38H-817.1z"/><path class="st0" d="M-879.2 231.8v3.8c-32.1 0-58.1 25.8-58.1 57.6l0 0h27.1v3.8h-27c0.9 13.9 6.9 27 16.9 36.9l0 0 -2.7 2.7c-11.6-11.5-18.2-27.1-18.2-43.4C-941.2 259.4-913.4 231.8-879.2 231.8L-879.2 231.8z"/><path class="st0" d="M-883 297.1c0-33.9 27.8-61.4 62-61.4l0 0v3.8c-32.1 0-58.1 25.8-58.1 57.6l0 0H-883z"/><path class="st0" d="M-817.1 293.2c0 33.9-27.8 61.4-62 61.4l0 0v-3.8c32.1 0 58.1-25.8 58.1-57.5l0 0H-817.1z"/><rect x="-992.3" y="131.3" width="226.5" height="29.6" class="a"/><text transform="matrix(1 0 0 1 -955.3693 148.3319)" class="b">  flowsoft games</text><rect x="-941.1" y="378.3" width="123.8" height="123.8" class="a"/><text transform="matrix(1 0 0 1 -919.6603 395.3104)"><tspan class="b">  flowsoft </tspan><tspan x="7.2" y="21" class="b">  games</tspan></text><rect x="-978.6" y="-101.9" width="197.1" height="78.5" class="a"/><text transform="matrix(1 0 0 1 -956.3776 -84.8986)" style="fill:#667880;font-family:'Roboto-Light';font-size:20px">  flowsoft games</text><path class="st0" d="M69.8 10.6v3.8c-32.1 0-58.1 25.8-58.1 57.6l0 0h27.1v3.8h-27c0.9 13.9 6.9 27 16.9 36.9l0 0 -2.7 2.7C14.3 103.9 7.8 88.2 7.8 72 7.8 38.1 35.5 10.6 69.8 10.6L69.8 10.6z"/><path class="st0" d="M65.9 75.8c0-33.9 27.8-61.4 62-61.4l0 0v3.8c-32.1 0-58.1 25.8-58.1 57.6l0 0H65.9z"/><path class="st0" d="M131.8 72c0 33.9-27.8 61.4-62 61.4l0 0v-3.8c32.1 0 58.1-25.8 58.1-57.5l0 0H131.8z"/><g class="st1"><rect x="-941.1" y="-33" class="st2" width="123.8" height="123.8"/><polygon class="st2" points="-941.7 148.9 -879.9 41.8 -818 148.9 "/><polygon class="st2" points="-941.9 337.7 -880.1 230.6 -818.2 337.7 "/><rect x="-942" y="230.6" class="st2" width="123.8" height="114.6"/><polygon class="st2" points="-941.9 -86.3 -880.1 -193.5 -818.2 -86.3 "/><rect x="-538.9" y="41.8" class="st2" width="94.9" height="94.9"/></g></svg>